C:\GBW_MyPrograms\PredSimResults\Vitruvian_man\IG_v18ms_QR.mot
version=1
nRows=16
nColumns=35
inDegrees=yes
endheader
                time	         pelvis_tilt	           pelvis_tx	           pelvis_ty	       hip_flexion_r	        knee_angle_r	       ankle_angle_r	         mtp_angle_r	       hip_flexion_l	        knee_angle_l	       ankle_angle_l	         mtp_angle_l	    lumbar_extension	          arm_flex_r	          arm_flex_l	        elbow_flex_r	        elbow_flex_l	hamstrings_r/activation	bifemsh_r/activation	glut_max_r/activation	iliopsoas_r/activation	rect_fem_r/activation	  vasti_r/activation	gastroc_r/activation	 soleus_r/activation	tib_ant_r/activation	hamstrings_l/activation	bifemsh_l/activation	glut_max_l/activation	iliopsoas_l/activation	rect_fem_l/activation	  vasti_l/activation	gastroc_l/activation	 soleus_l/activation	tib_ant_l/activation	
          1.67468277	         -9.69477315	          2.97849585	          0.97205999	         34.18055901	        -16.93579753	        -10.46765820	          0.68421299	          3.15107174	         -5.32997323	         11.29783351	          4.09606035	        -13.06351867	        -14.87248777	        -14.87248792	         19.57677746	         19.57677712	          0.60987614	          0.24619930	          0.52283644	          0.12977461	          0.08626993	          0.05000222	          0.07021602	          0.18031207	          0.21955827	          0.14394600	          0.38567211	          0.28207710	          0.28306526	          0.05229345	          0.05001288	          0.46121210	          0.45075153	          0.19498502	
          1.69142960	        -10.76775955	          3.01663043	          0.96412744	         35.44983140	        -21.86875711	         -5.79802635	          1.19233666	          3.03475108	         -7.56658894	         12.64322298	          7.21330697	        -10.79361958	        -20.01249354	        -20.01249369	         15.81540481	         15.81540457	          0.47679625	          0.19247778	          0.77454294	          0.10145719	          0.06744606	          0.05003129	          0.05489556	          0.42482144	          0.17165160	          0.14756818	          0.45819446	          0.23755438	          0.26208443	          0.05000397	          0.05000854	          0.48248581	          0.51750022	          0.15243803	
          1.70817643	        -11.81505793	          3.05546782	          0.96064082	         36.34569132	        -26.01451827	         -3.03644701	          2.96441607	          2.83612806	         -9.55910763	         11.89091769	         10.46827642	         -8.21795158	        -25.16903778	        -25.16903793	         12.41009640	         12.41009624	          0.37275593	          0.15047909	          0.89286879	          0.07931894	          0.05273037	          0.30913129	          0.05000679	          0.60274860	          0.13421150	          0.17011712	          0.55930098	          0.18572822	          0.30041768	          0.05000455	          0.05000398	          0.45278770	          0.43473383	          0.11917508	
          1.72492326	        -12.73661855	          3.09507908	          0.96176047	         35.95276914	        -28.03659327	         -1.86599226	          5.46013503	          2.77337252	        -11.84807127	          9.18505436	         13.67712863	         -5.46053216	        -30.34776660	        -30.34776675	          9.54767085	          9.54767076	          0.29144502	          0.11764488	          0.69803836	          0.06201150	          0.05000320	          0.45263966	          0.16225480	          0.72659134	          0.10492742	          0.18170847	          0.51557597	          0.21902607	          0.29496376	          0.05000292	          0.05000294	          0.35399318	          0.33987154	          0.09317031	
          1.74167008	        -13.39920970	          3.13502888	          0.96713198	         34.11605048	        -27.90241108	         -1.90361791	          8.36893477	          2.94585682	        -14.72464591	          4.72239303	         16.42580861	         -2.78918095	        -35.51994910	        -35.51994925	          7.61763850	          7.61763846	          0.25447089	          0.09197540	          0.54572061	          0.05000138	          0.05000356	          0.35387143	          0.25276975	          0.76888556	          0.08203215	          0.15610682	          0.40309007	          0.17123795	          0.33976132	          0.05000211	          0.05000178	          0.27674998	          0.26570877	          0.07284000	
          1.75841691	        -13.77986238	          3.17440458	          0.97562193	         31.45671524	        -26.60142586	         -3.08548808	         11.36841982	          3.47735876	        -18.30931264	         -0.91986473	         17.88290039	         -0.40459150	        -40.43809694	        -40.43809707	          6.52639618	          6.52639616	          0.20978753	          0.07190761	          0.42663985	          0.05000175	          0.05000444	          0.27665408	          0.32342649	          0.73553152	          0.06413259	          0.12204418	          0.31513620	          0.13387414	          0.38079941	          0.05000565	          0.05000106	          0.21636166	          0.20772895	          0.05694612	
          1.77516374	        -13.85050055	          3.21249014	          0.98629267	         28.47933615	        -24.95553217	         -5.37596237	         14.18330812	          4.34278160	        -22.55246389	         -6.78556410	         16.85798126	          1.51997589	        -44.42016075	        -44.42016084	          5.00301524	          5.00301523	          0.17984323	          0.05622079	          0.33354360	          0.05000172	          0.05000432	          0.21628607	          0.38986656	          0.60196766	          0.05013897	          0.09541373	          0.24637272	          0.10466369	          0.37038730	          0.31534759	          0.05000247	          0.16915069	          0.16240089	          0.05000065	
          1.79191057	        -13.63171698	          3.24904179	          0.99825484	         25.40015874	        -23.31393667	         -8.37692641	         16.42826591	          5.28170573	        -26.66357053	        -12.88586523	         14.12158735	          2.91246186	        -47.33862586	        -47.33862593	          3.18878635	          3.18878635	          0.14319608	          0.17651692	          0.26076182	          0.05000223	          0.05000432	          0.16909084	          0.35832993	          0.47061399	          0.05000119	          0.07459442	          0.19261438	          0.08182737	          0.37316396	          0.51553520	          0.05001218	          0.13224219	          0.12696394	          0.19204738	
          1.80865739	        -13.12974692	          3.28383681	          1.01052701	         22.37266904	        -21.99057167	        -11.59237383	         17.86766817	          6.00712848	        -30.02427996	        -14.68707380	         11.24739320	          3.68025582	        -49.19202119	        -49.19202122	          1.49025507	          1.49025507	          0.11195426	          0.61081884	          0.20386174	          0.05000259	          0.05000385	          0.13219401	          0.28014084	          0.36792222	          0.05000096	          0.05831913	          0.15058820	          0.06397470	          0.39542560	          0.71381371	          0.10764146	          0.10338791	          0.09925981	          0.39583722	
          1.82540422	        -12.34497485	          3.31657892	          1.02249636	         19.62667722	        -21.41347547	        -14.76417225	         18.48815663	          6.27555267	        -31.62129947	        -13.95568281	          9.06207719	          3.71643084	        -49.97437782	        -49.97437783	          0.31161749	          0.31161749	          0.08752638	          0.66422919	          0.15937785	          0.05101741	          0.05000398	          0.10334840	          0.21901215	          0.28763854	          0.05000119	          0.05000549	          0.11773549	          0.05002015	          0.47349684	          0.82668569	          0.14580792	          0.08082995	          0.07760107	          0.41297861	
          1.84215105	        -11.29673775	          3.34676579	          1.03360020	         17.29042388	        -21.81300919	        -17.27011214	         17.84569542	          6.19020574	        -31.26989077	        -12.53468937	          7.28003983	          2.92134588	        -49.69001845	        -49.69001843	          0.00018997	          0.00018997	          0.06842840	          0.51929071	          0.12460110	          0.10463924	          0.05002285	          0.08079745	          0.17122205	          0.22487341	          0.29343664	          0.05000546	          0.09205144	          0.05001293	          0.56021405	          0.80270578	          0.11402630	          0.06319525	          0.06066884	          0.38981553	
          1.85889788	        -10.13679339	          3.37375633	          1.04301131	         15.49944523	        -23.22853057	        -17.91781600	         15.29189609	          6.33493584	        -29.87843028	        -10.82446367	          5.85143152	          1.35953474	        -48.33753526	        -48.33753521	          0.62419304	          0.62419304	          0.05349791	          0.40597795	          0.09741382	          0.08181251	          0.29300348	          0.19366419	          0.13386008	          0.17580415	          0.56806077	          0.05000393	          0.07197323	          0.05000844	          0.60084482	          0.68564179	          0.08914950	          0.05000606	          0.05000228	          0.36243021	
          1.87564470	         -8.97084220	          3.39765785	          1.05032321	         13.68413735	        -23.88546238	        -16.57514751	         12.33381574	          7.07344690	        -28.21525392	         -9.27965433	          4.69597535	         -0.83543004	        -45.92161623	        -45.92161615	          1.94424206	          1.94424207	          0.05000370	          0.31739091	          0.07616113	          0.06396461	          0.45038250	          0.23081542	          0.10465079	          0.13744221	          0.61994731	          0.05000264	          0.05627973	          0.05000739	          0.55993929	          0.53603917	          0.06971934	          0.05000526	          0.05000235	          0.35825701	
          1.89239153	         -7.88174868	          3.41884870	          1.05536458	         11.50343353	        -22.46628496	        -14.29868172	          9.93884059	          8.51894167	        -26.63800843	         -8.10825446	          3.74288185	         -3.49206004	        -42.44279329	        -42.44279318	          3.49685168	          3.49685167	          0.05000996	          0.24813426	          0.05961532	          0.05001145	          0.53071253	          0.18045112	          0.08181519	          0.10745117	          0.70738368	          0.05000227	          0.05002323	          0.05000769	          0.43776337	          0.41907282	          0.09808483	          0.05000414	          0.05000217	          0.36460402	
          1.90913836	         -6.99926563	          3.43794071	          1.05778226	          9.19518960	        -19.35837797	        -11.55325467	          7.97350625	         10.56310045	        -24.93480273	         -7.06995656	          2.96003840	         -6.31844230	        -37.99480573	        -37.99480559	          4.82182297	          4.82182295	          0.06988863	          0.19398999	          0.11935947	          0.05000424	          0.45844622	          0.14107669	          0.06396254	          0.08400446	          0.58563062	          0.05000152	          0.05001854	          0.05000550	          0.34224137	          0.32762883	          0.11832961	          0.05000348	          0.05000214	          0.35411701	
          1.92588519	         -6.37515580	          3.45587758	          1.05725241	          6.93244455	        -15.24685476	         -9.13271492	          6.35905919	         12.94877256	        -22.77965337	         -6.31223403	          2.32799462	         -9.05756501	        -33.02475065	        -33.02475051	          6.36211940	          6.36211937	          0.15074125	          0.15166070	          0.12721948	          0.05000434	          0.35841146	          0.11029763	          0.05000562	          0.06567406	          0.53760500	          0.05000113	          0.05001271	          0.05000504	          0.26756303	          0.25613894	          0.11377011	          0.05000378	          0.05000316	          0.32917804	
